<svg width="385" height="503" viewBox="0 0 385 503" fill="none" xmlns="http://www.w3.org/2000/svg"><path d="M31.5 1.4c-10.8 3.4-22 12.7-26.4 22C-.2 34.3 0 22.4 0 250.7c0 152.2.3 213.7 1.1 217.5 2.8 13.3 12.2 25.2 24.6 31.1l6.8 3.2h319l6.8-3.2c12.1-5.8 21.8-18 24.6-31.1 1.5-7.2 1.6-336.8.1-340.9-1.2-3.2-121-123.6-125.2-125.9C255.5.2 238.9 0 145.3.1 59.5.1 34.6.4 31.5 1.4zM236 67.5c0 40.3.4 44.7 4.6 54.3 2.7 6.1 11.1 15.3 17.2 18.9 10.2 6 12.7 6.3 56.3 6.3H354v316.7l-2.3 3.4c-1.2 1.9-3.8 4.2-5.7 5.2-3.3 1.6-12.3 1.7-155.2 1.5l-151.7-.3-2.8-2.1c-1.5-1.2-3.7-3.6-4.8-5.5-2-3.4-2-5.5-2.3-209.9-.2-113.6 0-208.8.3-211.7.8-6.3 3.8-11.2 8.5-13.5 3.3-1.7 10.2-1.8 100.8-1.8H236v38.5zm69.8 50.3c-26.6.2-27.4.2-31.7-2-7.9-4.1-8.1-5.1-8.1-37.3v-28L299.5 84l33.5 33.5-27.2.3z" fill="#fff"/><path d="M97 209.7c-10.7 5.5-10.7 20.7 0 26.5 3.4 1.8 7.3 1.8 96 1.6l92.5-.3 3.4-2.4c8.2-5.9 8.2-18.4-.1-24.3l-3.3-2.3-92.5-.3c-86.6-.2-92.7-.1-96 1.5zm0 59.1c-10.7 5.8-10.7 21 0 26.5 3.3 1.6 9.4 1.7 96 1.5l92.5-.3 3.3-2.3c8.3-5.9 8.3-18.4.1-24.3l-3.4-2.4-92.5-.3c-88.7-.2-92.6-.2-96 1.6zm.3 59.2c-11 4.9-11.2 20.8-.3 26.2 3.3 1.7 9.9 1.8 95 1.8 87.2 0 91.7-.1 95-1.9 10.7-5.6 10.7-20.4 0-25.9l-4.4-2.2H192c-87.1 0-90.7.1-94.7 2zm-.3 59.2c-10.7 5.4-10.7 20.7 0 26 3.2 1.7 8.5 1.8 65.3 1.8 67.8 0 66.3.1 70.7-6 5.3-7.5 3-17.5-5-21.7l-4.3-2.3H101.4l-4.4 2.2z" fill="#fff"/></svg>