<svg width="381" height="510" viewBox="0 0 381 510" fill="none" xmlns="http://www.w3.org/2000/svg"><path d="M171.1 1.1C80.9 11.3 11 81.6 1.1 172.2-7.9 254 38.8 354.1 135 459.5c18 19.7 45.4 46.4 49.5 48.1 8.7 3.6 12.3 1.6 32.1-17.8 65.2-63.9 114.9-132.8 141.7-196.4 25.3-60.2 29.3-113.5 12.1-163.6C347.6 63.1 291.2 14.9 222 2.9 208.6.6 183.5-.3 171.1 1.1zM207.8 86c21.9 3.6 43.2 14.9 58.9 31.3 9.3 9.7 13.9 16.6 19.8 29 16.8 35.5 12.4 76.8-11.4 108.5-42.2 55.9-126.9 55.9-169.2-.1-32.7-43.2-27.7-103.1 11.7-140.8 15.6-14.8 36.9-25.4 56.9-28.2 6.2-.8 27.2-.6 33.3.3z" fill="#3A382E"/></svg>