<svg width="333" height="328" viewBox="0 0 333 328" fill="none" xmlns="http://www.w3.org/2000/svg">
<path d="M8.78122 134.709L25.707 137.561L25.2386 140.341L10.9725 137.938L9.81152 144.829L24.0776 147.233L23.6091 150.013L6.68328 147.162L8.78122 134.709Z" fill="white"/>
<path d="M30.4734 113.797C31.532 115.981 31.6539 118.247 30.839 120.595C30.0241 122.942 28.5218 124.653 26.3321 125.727C24.1322 126.78 21.8586 126.899 19.5113 126.084C17.164 125.269 15.461 123.77 14.4024 121.585C13.3337 119.38 13.2068 117.104 14.0217 114.757C14.8365 112.409 16.3439 110.709 18.5437 109.656C20.7335 108.582 23.002 108.452 25.3494 109.267C27.6967 110.082 29.4047 111.592 30.4734 113.797ZM25.1766 123.223C26.659 122.492 27.6817 121.316 28.2446 119.694C28.8075 118.072 28.731 116.523 28.0152 115.046C27.2893 113.548 26.0924 112.51 24.4246 111.931C22.7568 111.352 21.1816 111.428 19.6992 112.159C18.2067 112.87 17.179 114.036 16.6161 115.657C16.0532 117.279 16.1347 118.838 16.8606 120.336C17.5764 121.813 18.7682 122.841 20.4361 123.42C22.1039 123.999 23.6841 123.934 25.1766 123.223Z" fill="white"/>
<path d="M36.4877 105.305L34.2084 104.056C34.856 103.18 35.0116 102.352 34.6752 101.571C34.3468 100.776 33.3511 99.9228 31.6882 99.0114L22.9795 94.2386L28.5066 84.1537L43.5586 92.4031L42.2034 94.8759L29.5167 87.9229L26.7001 93.0621L33.0004 96.515C34.3193 97.2378 35.3517 97.99 36.0977 98.7717C36.8515 99.539 37.3164 100.306 37.4923 101.074C37.6538 101.834 37.6485 102.558 37.4762 103.246C37.2974 103.912 36.9679 104.599 36.4877 105.305Z" fill="white"/>
<path d="M40.7109 66.7547L42.4304 64.4889L49.3712 76.4353C51.0679 79.3644 50.9602 81.9401 49.0481 84.1624L46.9581 82.5764C47.6192 81.8674 47.9714 81.1599 48.0146 80.4539C48.0677 79.735 47.8383 78.9555 47.3265 78.1157L34.2039 75.3298L35.9233 73.064L45.6509 75.2128L40.7109 66.7547Z" fill="white"/>
<path d="M55.6748 50.4889L57.6839 48.5102L69.728 60.7394L67.719 62.7181L63.0906 58.0186C62.6189 59.2403 61.9113 60.3157 60.9679 61.2448C59.745 62.4492 58.4166 63.0922 56.9826 63.1737C55.5488 63.2322 54.2755 62.6965 53.1629 61.5668L48.8614 57.1992L50.8705 55.2205L54.9655 59.3785C55.5849 60.0074 56.2646 60.3131 57.0045 60.2956C57.7445 60.2781 58.4464 59.9425 59.1102 59.2887C60.0769 58.3366 60.7671 57.2668 61.1807 56.0794L55.6748 50.4889Z" fill="white"/>
<path d="M85.0684 48.6865L78.2431 39.2486L78.5115 53.4282L76.7233 54.7214L66.665 40.813L68.95 39.1605L75.7752 48.5984L75.5068 34.4188L77.2951 33.1256L87.3533 47.0341L85.0684 48.6865Z" fill="white"/>
<path d="M97.2112 21.8475L98.462 24.2371L94.1823 26.4773L100.891 39.2946L98.3931 40.6023L91.684 27.785L87.3826 30.0365L86.1318 27.6468L97.2112 21.8475Z" fill="white"/>
<path d="M114.49 21.1645C116.013 20.6155 117.467 20.6732 118.853 21.3375C120.25 21.9808 121.217 23.0483 121.755 24.5399C122.298 26.047 122.238 27.4937 121.574 28.8802C120.925 30.2611 119.839 31.2261 118.317 31.7751L112.365 33.9212L106.543 17.7747L109.195 16.8181L111.192 22.3541L114.49 21.1645ZM117.418 29.2839C118.202 29.0011 118.754 28.5068 119.073 27.8009C119.386 27.0797 119.396 26.3116 119.102 25.4966C118.808 24.6815 118.313 24.1041 117.617 23.7643C116.916 23.4091 116.173 23.3729 115.389 23.6557L112.09 24.8452L114.12 30.4734L117.418 29.2839Z" fill="white"/>
<path d="M154.129 6.67964L156.06 23.7349L153.259 24.0523L151.63 9.6771L144.687 10.4636L146.315 24.8387L143.513 25.1561L141.581 8.10079L154.129 6.67964Z" fill="white"/>
<path d="M172.734 6.43482C174.351 6.49145 175.68 7.07776 176.721 8.19375C177.778 9.31032 178.278 10.6691 178.222 12.2701C178.166 13.8548 177.572 15.1753 176.439 16.2315C175.323 17.272 173.957 17.764 172.339 17.7073L168.835 17.5846L168.629 23.4659L165.811 23.3673L166.412 6.21344L172.734 6.43482ZM172.432 15.0607C173.265 15.0899 173.961 14.8362 174.52 14.2996C175.079 13.7467 175.373 13.0373 175.404 12.1715C175.434 11.3056 175.189 10.5855 174.67 10.0112C174.151 9.4205 173.474 9.11058 172.641 9.08141L169.137 8.95871L168.928 14.938L172.432 15.0607Z" fill="white"/>
<path d="M189.128 22.5299L196.619 23.8242L196.159 26.4821L185.89 24.7076L188.813 7.79393L198.961 9.54755L198.502 12.2054L191.132 10.932L190.372 15.3295L197.138 16.4986L196.683 19.1323L189.917 17.9632L189.128 22.5299Z" fill="white"/>
<path d="M215.511 22.6476C216.926 23.9712 217.342 25.5524 216.759 27.391C216.304 28.8245 215.388 29.8201 214.011 30.3778C212.654 30.9248 211.103 30.9215 209.357 30.3678C206.366 29.4187 204.787 27.5287 204.622 24.698L207.359 24.0999C207.293 25.9827 208.226 27.2306 210.158 27.8436C211.187 28.1699 212.043 28.2014 212.727 27.9381C213.415 27.6593 213.878 27.1459 214.116 26.398C214.348 25.6657 214.268 24.9973 213.877 24.393C213.506 23.778 212.846 23.3197 211.895 23.0181L209.908 22.3878L210.68 19.9571L212.129 20.4168C213.048 20.7085 213.832 20.7256 214.479 20.468C215.127 20.2104 215.562 19.7311 215.784 19.0299C216.007 18.3287 215.949 17.7014 215.61 17.148C215.276 16.579 214.672 16.1561 213.8 15.8792C212.179 15.3651 210.854 15.7592 209.823 17.0615L207.956 15.0025C209.737 13.0638 211.952 12.5146 214.601 13.355C216.206 13.8642 217.368 14.7133 218.089 15.9022C218.814 17.0756 218.957 18.3557 218.517 19.7424C218.027 21.285 217.025 22.2534 215.511 22.6476Z" fill="white"/>
<path d="M227.185 33.956L234.051 37.2167L232.894 39.6532L223.48 35.183L230.843 19.6779L240.146 24.0956L238.989 26.5321L232.233 23.324L230.319 27.3553L236.521 30.3004L235.375 32.7148L229.173 29.7697L227.185 33.956Z" fill="white"/>
<path d="M258.381 35.1297L260.728 36.6921L251.218 50.9811L248.871 49.4187L252.987 43.2336L246.864 39.158L242.747 45.3431L240.4 43.7807L249.91 29.4917L252.257 31.054L248.358 36.9125L254.482 40.9882L258.381 35.1297Z" fill="white"/>
<path d="M278.365 51.47L276.564 53.4779L272.968 50.2526L263.308 61.0223L261.209 59.1395L270.868 48.3697L267.254 45.128L269.055 43.1201L278.365 51.47Z" fill="white"/>
<path d="M279.549 78.4279L281.433 75.2895L276.749 69.681L273.325 70.975L271.361 68.6224L288.527 62.4006L290.696 64.9978L281.498 80.7617L279.549 78.4279ZM279.379 68.6987L282.868 72.8769L287.071 65.821L279.379 68.6987Z" fill="white"/>
<path d="M294.989 96.8763L295.935 98.4534L290.804 101.531L289.354 99.1124L292.172 97.4224L286.181 87.4339L300.901 78.6056L302.351 81.0239L289.944 88.4649L293.539 94.458L305.945 87.017L307.396 89.4352L294.989 96.8763Z" fill="white"/>
<path d="M300.955 116.493L311.751 112.122L297.919 108.993L297.091 106.947L313.001 100.506L314.059 103.12L303.263 107.491L317.095 110.62L317.924 112.666L302.014 119.107L300.955 116.493Z" fill="white"/>
<path d="M325.055 138.338C325.544 140.774 325.108 143.004 323.747 145.028C322.405 147.065 320.516 148.327 318.079 148.816C315.643 149.305 313.405 148.87 311.365 147.512C309.345 146.167 308.09 144.276 307.601 141.84C307.154 139.612 307.49 137.544 308.607 135.636C309.744 133.741 311.385 132.445 313.529 131.748L312.994 129.079L305.661 130.55L305.106 127.785L321.935 124.409L322.49 127.174L315.638 128.548L316.188 131.289C318.327 131.227 320.226 131.846 321.888 133.147C323.569 134.46 324.624 136.19 325.055 138.338ZM311.147 136.702C310.241 138.084 309.956 139.617 310.294 141.3C310.632 142.983 311.484 144.279 312.85 145.189C314.235 146.111 315.794 146.399 317.525 146.051C319.256 145.704 320.574 144.839 321.481 143.457C322.406 142.087 322.7 140.561 322.363 138.878C322.022 137.179 321.168 135.875 319.802 134.966C318.436 134.056 316.879 133.776 315.132 134.127C313.401 134.474 312.073 135.333 311.147 136.702Z" fill="white"/>
<path d="M324.323 193.524L307.397 190.673L307.866 187.892L322.132 190.296L323.293 183.404L309.027 181.001L309.495 178.22L326.421 181.072L324.323 193.524Z" fill="white"/>
<path d="M302.631 214.437C301.572 212.252 301.451 209.986 302.265 207.639C303.08 205.292 304.583 203.581 306.772 202.507C308.972 201.454 311.246 201.334 313.593 202.149C315.941 202.964 317.643 204.464 318.702 206.648C319.771 208.853 319.898 211.13 319.083 213.477C318.268 215.824 316.761 217.525 314.561 218.578C312.371 219.652 310.102 219.782 307.755 218.967C305.408 218.152 303.7 216.642 302.631 214.437ZM307.928 205.01C306.445 205.742 305.423 206.918 304.86 208.54C304.297 210.161 304.373 211.71 305.089 213.188C305.815 214.685 307.012 215.724 308.68 216.303C310.348 216.882 311.923 216.806 313.405 216.074C314.898 215.364 315.926 214.198 316.488 212.576C317.051 210.955 316.97 209.395 316.244 207.897C315.528 206.42 314.336 205.392 312.668 204.813C311.001 204.234 309.42 204.3 307.928 205.01Z" fill="white"/>
<path d="M296.618 222.929L298.897 224.178C298.25 225.053 298.094 225.882 298.43 226.662C298.759 227.458 299.754 228.311 301.417 229.222L310.126 233.995L304.599 244.08L289.547 235.831L290.902 233.358L303.589 240.311L306.405 235.172L300.105 231.719C298.786 230.996 297.754 230.244 297.008 229.462C296.254 228.695 295.789 227.927 295.613 227.16C295.452 226.4 295.457 225.676 295.629 224.988C295.808 224.321 296.138 223.635 296.618 222.929Z" fill="white"/>
<path d="M292.393 261.478L290.673 263.744L283.732 251.798C282.036 248.869 282.143 246.293 284.055 244.071L286.145 245.657C285.484 246.366 285.132 247.073 285.089 247.779C285.036 248.498 285.265 249.278 285.777 250.117L298.9 252.903L297.18 255.169L287.453 253.02L292.393 261.478Z" fill="white"/>
<path d="M277.43 277.744L275.421 279.723L263.376 267.494L265.386 265.515L270.014 270.215C270.486 268.993 271.193 267.918 272.137 266.989C273.359 265.784 274.688 265.141 276.122 265.06C277.556 265.001 278.829 265.537 279.942 266.667L284.243 271.034L282.234 273.013L278.139 268.855C277.52 268.226 276.84 267.92 276.1 267.938C275.36 267.955 274.658 268.291 273.994 268.945C273.028 269.897 272.337 270.967 271.924 272.154L277.43 277.744Z" fill="white"/>
<path d="M248.036 279.546L254.861 288.984L254.593 274.805L256.381 273.511L266.439 287.42L264.155 289.072L257.329 279.634L257.598 293.814L255.809 295.107L245.751 281.199L248.036 279.546Z" fill="white"/>
<path d="M235.893 306.386L234.642 303.996L238.922 301.756L232.213 288.939L234.711 287.631L241.42 300.448L245.722 298.197L246.973 300.586L235.893 306.386Z" fill="white"/>
<path d="M218.614 307.069C217.092 307.618 215.638 307.56 214.251 306.896C212.855 306.252 211.888 305.185 211.35 303.693C210.806 302.186 210.867 300.739 211.531 299.353C212.18 297.972 213.266 297.007 214.788 296.458L220.739 294.312L226.562 310.458L223.909 311.415L221.913 305.879L218.614 307.069ZM215.686 298.949C214.902 299.232 214.35 299.726 214.032 300.432C213.718 301.153 213.708 301.922 214.002 302.737C214.296 303.552 214.791 304.129 215.487 304.469C216.189 304.824 216.932 304.86 217.716 304.577L221.014 303.388L218.985 297.76L215.686 298.949Z" fill="white"/>
<path d="M178.975 321.554L177.043 304.498L179.845 304.181L181.473 318.556L188.417 317.77L186.789 303.394L189.591 303.077L191.522 320.132L178.975 321.554Z" fill="white"/>
<path d="M160.37 321.799C158.752 321.742 157.423 321.156 156.383 320.04C155.326 318.923 154.826 317.564 154.882 315.963C154.937 314.379 155.531 313.058 156.664 312.002C157.78 310.961 159.147 310.469 160.764 310.526L164.269 310.649L164.474 304.767L167.293 304.866L166.692 322.02L160.37 321.799ZM160.672 313.173C159.838 313.143 159.143 313.397 158.584 313.934C158.025 314.487 157.73 315.196 157.7 316.062C157.669 316.928 157.914 317.648 158.434 318.222C158.953 318.813 159.629 319.123 160.462 319.152L163.966 319.275L164.176 313.295L160.672 313.173Z" fill="white"/>
<path d="M143.976 305.703L136.486 304.409L136.945 301.751L147.214 303.526L144.292 320.439L134.143 318.686L134.603 316.028L141.972 317.301L142.732 312.904L135.967 311.735L136.422 309.101L143.187 310.27L143.976 305.703Z" fill="white"/>
<path d="M117.593 305.585C116.178 304.262 115.762 302.681 116.346 300.842C116.8 299.408 117.716 298.413 119.094 297.855C120.451 297.308 122.002 297.311 123.747 297.865C126.739 298.814 128.317 300.704 128.482 303.535L125.746 304.133C125.811 302.25 124.878 301.002 122.946 300.389C121.918 300.063 121.062 300.032 120.378 300.295C119.689 300.574 119.226 301.087 118.989 301.835C118.757 302.567 118.836 303.236 119.227 303.84C119.598 304.455 120.259 304.913 121.209 305.215L123.196 305.845L122.425 308.276L120.976 307.816C120.056 307.524 119.273 307.507 118.625 307.765C117.978 308.022 117.543 308.502 117.32 309.203C117.098 309.904 117.156 310.531 117.495 311.085C117.829 311.654 118.432 312.077 119.305 312.354C120.925 312.868 122.251 312.474 123.281 311.171L125.149 313.23C123.368 315.169 121.153 315.718 118.504 314.878C116.899 314.369 115.736 313.52 115.016 312.331C114.29 311.157 114.148 309.877 114.588 308.49C115.077 306.948 116.079 305.98 117.593 305.585Z" fill="white"/>
<path d="M105.919 294.277L99.0523 291.016L100.209 288.58L109.623 293.05L102.26 308.555L92.9573 304.138L94.1143 301.701L100.87 304.909L102.784 300.878L96.5824 297.933L97.7289 295.518L103.931 298.463L105.919 294.277Z" fill="white"/>
<path d="M74.7236 293.103L72.3761 291.541L81.8861 277.252L84.2335 278.814L80.1171 284.999L86.241 289.075L90.3574 282.89L92.7049 284.452L83.195 298.741L80.8475 297.179L84.7466 291.32L78.6227 287.244L74.7236 293.103Z" fill="white"/>
<path d="M54.739 276.763L56.5399 274.755L60.1359 277.98L69.7956 267.211L71.8947 269.093L62.2351 279.863L65.8494 283.105L64.0484 285.113L54.739 276.763Z" fill="white"/>
<path d="M53.555 249.806L51.6715 252.944L56.3553 258.553L59.7792 257.259L61.7439 259.611L44.5772 265.833L42.4082 263.236L51.606 247.472L53.555 249.806ZM53.7254 259.535L50.2361 255.357L46.0335 262.413L53.7254 259.535Z" fill="white"/>
<path d="M38.1144 231.357L37.1685 229.78L42.2994 226.703L43.7498 229.121L40.932 230.811L46.9227 240.799L32.2028 249.628L30.7524 247.21L43.1592 239.769L39.5648 233.775L27.158 241.216L25.7077 238.798L38.1144 231.357Z" fill="white"/>
<path d="M32.1491 211.74L21.3531 216.111L35.1857 219.24L36.0138 221.286L20.1039 227.727L19.0457 225.113L29.8417 220.743L16.0091 217.613L15.181 215.567L31.0909 209.126L32.1491 211.74Z" fill="white"/>
<path d="M8.04812 189.895C7.55931 187.459 7.99552 185.229 9.35678 183.205C10.6988 181.168 12.5879 179.906 15.0241 179.417C17.4603 178.928 19.6982 179.363 21.738 180.721C23.7586 182.066 25.0133 183.957 25.5021 186.393C25.9491 188.621 25.6138 190.689 24.4961 192.597C23.3592 194.492 21.7186 195.789 19.5743 196.486L20.1097 199.154L27.4423 197.683L27.9971 200.448L11.1681 203.824L10.6134 201.06L17.4652 199.685L16.9152 196.944C14.7769 197.006 12.8771 196.387 11.2156 195.087C9.53488 193.773 8.47905 192.043 8.04812 189.895ZM21.9564 191.531C22.8628 190.149 23.1472 188.616 22.8095 186.933C22.4718 185.25 21.6198 183.954 20.2536 183.044C18.868 182.122 17.3098 181.834 15.5788 182.182C13.8478 182.529 12.5291 183.394 11.6227 184.776C10.6971 186.146 10.4031 187.672 10.7408 189.355C11.0816 191.054 11.9352 192.358 13.3015 193.268C14.6678 194.177 16.2244 194.457 17.9714 194.106C19.7024 193.759 21.0307 192.9 21.9564 191.531Z" fill="white"/>
</svg>
