<svg width="87" height="115" viewBox="0 0 87 115" fill="none" xmlns="http://www.w3.org/2000/svg">
<path d="M7.59304 0.320207C5.75124 0.815626 4.42605 1.60379 3.03347 2.99998C1.57351 4.48624 0.675072 6.10761 0.248314 8.04425C0.0686263 8.9225 0.00124351 22.3214 0.00124351 57.2485C0.00124351 109.628 -0.0886002 106.385 1.25906 109.02C2.51687 111.497 5.39187 113.591 8.28933 114.154C9.95144 114.469 76.9749 114.469 78.637 114.154C81.5344 113.591 84.4094 111.497 85.6673 109.02C86.9924 106.385 86.9251 108.66 86.9251 67.4496C86.9251 30.1805 86.9251 29.6175 86.4758 28.7168C85.8469 27.4332 59.2532 0.793107 58.1077 0.320207C57.3889 0.0274585 54.3567 -0.0175797 32.9739 0.00493938C13.8372 0.0274585 8.42409 0.0950157 7.59304 0.320207ZM53.5032 16.1286C53.5706 25.5191 53.5706 25.5416 54.1321 26.9603C55.1653 29.6401 57.2991 31.7568 60.1516 32.9053C61.4094 33.4007 61.6341 33.4233 70.8206 33.4908L80.1868 33.5584V69.2736C80.1868 108.795 80.2991 105.912 78.7493 107.016L78.053 107.511H43.4632H8.87331L8.17702 107.016C6.60476 105.89 6.73952 110.168 6.78445 56.8881L6.85183 8.78738L7.32351 8.15685C7.57058 7.81906 8.1321 7.34616 8.55886 7.14349C9.27761 6.76066 10.8274 6.73815 31.3792 6.73815H53.4358L53.5032 16.1286ZM68.6868 20.0019L75.2454 26.6675L69.0462 26.7351C62.1956 26.8026 61.7688 26.7351 60.7805 25.3614C60.3313 24.7534 60.3089 24.3706 60.2415 18.1778L60.1741 11.6248L61.1399 12.4805C61.679 12.9534 65.0706 16.3313 68.6868 20.0019Z" fill="white"/>
<path d="M22.1025 47.5878C21.2715 47.9482 20.5527 48.8264 20.2158 49.8623C19.6992 51.4386 20.7549 53.3302 22.4394 53.8031C22.9785 53.9833 30.0088 54.0283 43.957 53.9833C64.4639 53.9157 64.666 53.9157 65.2725 53.4428C66.373 52.6321 66.7998 51.8665 66.7998 50.673C66.7998 49.3443 65.9687 48.0833 64.7783 47.5878C63.6777 47.1375 23.1582 47.1375 22.1025 47.5878Z" fill="white"/>
<path d="M21.8562 61.1442C21.0476 61.5496 20.2839 62.608 20.0818 63.6438C19.8796 64.6347 20.6658 66.2786 21.6091 66.8641C22.3503 67.3145 22.6648 67.3145 43.4636 67.3145C64.24 67.3145 64.5993 67.3145 65.3181 66.8641C66.0593 66.4137 66.9128 64.9049 66.9353 64.0717C66.9353 63.1709 66.0593 61.7748 65.1609 61.2793L64.2849 60.7839H43.4411C24.7761 60.7839 22.5075 60.829 21.8562 61.1442Z" fill="white"/>
<path d="M22.1025 74.3856C19.5645 75.489 19.4522 79.1822 21.9229 80.3757C22.8213 80.826 23.2481 80.826 43.7549 80.781C64.4639 80.7135 64.666 80.7135 65.2725 80.2405C66.3731 79.4299 66.7998 78.6642 66.7998 77.4707C66.7998 76.1421 65.9688 74.881 64.7783 74.3856C63.6777 73.9352 23.1582 73.9352 22.1025 74.3856Z" fill="white"/>
<path d="M21.8562 87.9421C21.0476 88.3474 20.2839 89.4058 20.0818 90.4417C19.8796 91.4325 20.6658 93.0764 21.6091 93.6619C22.3279 94.0898 22.6872 94.1123 36.7478 94.1123H51.1453L51.9089 93.5944C54.0203 92.1757 53.8855 89.1131 51.6394 87.9871C50.9431 87.6043 49.7527 87.5818 36.7253 87.5818C24.2146 87.5818 22.4851 87.6268 21.8562 87.9421Z" fill="white"/>
</svg>
