<?xml version="1.0" encoding="utf-8"?><svg width="87" height="115" fill="none" xmlns="http://www.w3.org/2000/svg" viewBox="0 0 87 115"><path d="M7.593.32C5.751.816 4.426 1.604 3.033 3 1.573 4.486.675 6.108.248 8.044.068 8.922.001 22.321.001 57.25c0 52.379-.09 49.136 1.258 51.771 1.258 2.477 4.133 4.571 7.03 5.134 1.662.315 68.686.315 70.348 0 2.897-.563 5.772-2.657 7.03-5.134 1.325-2.635 1.258-.36 1.258-41.57 0-37.27 0-37.833-.45-38.733C85.848 27.433 59.254.793 58.109.32c-.72-.293-3.751-.338-25.134-.315C13.837.027 8.424.095 7.593.32zm45.91 15.809c.068 9.39.068 9.413.63 10.831 1.032 2.68 3.166 4.797 6.019 5.945 1.257.496 1.482.518 10.669.586l9.366.067v35.716c0 39.521.112 36.638-1.438 37.742l-.696.495H8.873l-.696-.495c-1.572-1.126-1.437 3.152-1.393-50.128l.068-48.1.472-.631c.247-.338.808-.81 1.235-1.014.719-.382 2.268-.405 22.82-.405h22.057l.067 9.39zm15.184 3.873l6.558 6.666-6.199.067c-6.85.068-7.277 0-8.266-1.374-.449-.608-.471-.99-.538-7.183l-.068-6.553.966.855c.539.473 3.93 3.851 7.547 7.522z" fill="#fff"/><path d="M22.102 47.588c-.83.36-1.55 1.238-1.886 2.274-.517 1.577.539 3.468 2.223 3.941.54.18 7.57.225 21.518.18 20.507-.067 20.709-.067 21.315-.54 1.101-.81 1.528-1.576 1.528-2.77 0-1.329-.831-2.59-2.022-3.085-1.1-.45-41.62-.45-42.676 0zM21.856 61.144c-.808.406-1.572 1.464-1.774 2.5-.202.99.584 2.635 1.527 3.22.741.45 1.056.45 21.855.45 20.776 0 21.135 0 21.854-.45.741-.45 1.595-1.96 1.617-2.792 0-.901-.876-2.297-1.774-2.793l-.876-.495H43.44c-18.665 0-20.934.045-21.585.36zM22.102 74.386c-2.538 1.103-2.65 4.796-.18 5.99.9.45 1.326.45 21.833.405 20.709-.068 20.911-.068 21.517-.54 1.101-.811 1.528-1.577 1.528-2.77 0-1.329-.831-2.59-2.022-3.085-1.1-.45-41.62-.45-42.676 0zM21.856 87.942c-.808.405-1.572 1.464-1.774 2.5-.202.99.584 2.634 1.527 3.22.719.428 1.078.45 15.139.45h14.397l.764-.518c2.111-1.418 1.977-4.48-.27-5.607-.696-.383-1.886-.405-14.914-.405-12.51 0-14.24.045-14.869.36z" fill="#fff"/></svg>