<?xml version="1.0" encoding="utf-8"?><svg width="46" height="64" fill="none" xmlns="http://www.w3.org/2000/svg" viewBox="0 0 46 64"><path d="M24.03 2.29C11.917 2.29 2.063 12 2.063 23.936c0 14.816 20.093 36.565 20.93 37.485.784.862.738.862 1.523 0C25.354 60.502 46 38.756 46 23.937 46 12.001 36.145 2.29 24.03 2.29z" fill="#878787"/><path d="M24.353 37.334c3.588 0 7.03-1.405 9.566-3.906A13.236 13.236 0 0037.882 24c0-3.536-1.425-6.927-3.963-9.428a13.63 13.63 0 00-9.566-3.905c-3.589 0-7.03 1.405-9.567 3.905A13.236 13.236 0 0010.823 24c0 3.537 1.426 6.928 3.963 9.428a13.631 13.631 0 009.567 3.906z" fill="#fff"/><path d="M24.353 29.334c2.989 0 5.412-2.388 5.412-5.334 0-2.945-2.423-5.333-5.412-5.333S18.941 21.055 18.941 24c0 2.946 2.423 5.334 5.412 5.334z" fill="#878787"/></svg>