<?xml version="1.0" encoding="utf-8"?><svg width="29" height="27" fill="none" xmlns="http://www.w3.org/2000/svg" viewBox="0 0 29 27"><g clip-path="url(#bdclip0_100_1050)"><path d="M14.762.063h-.007C7.127.063.924 6.045.924 13.402c0 2.918.975 5.623 2.634 7.819l-1.725 4.956 5.318-1.64a14.08 14.08 0 007.61 2.205c7.629 0 13.832-5.985 13.832-13.34 0-7.356-6.203-13.34-13.831-13.34z" fill="#fff"/><path d="M22.813 18.901c-.334.909-1.659 1.663-2.715 1.883-.723.148-1.667.267-4.846-1.004-4.065-1.624-6.683-5.608-6.887-5.867-.196-.258-1.643-2.11-1.643-4.023 0-1.915 1.008-2.847 1.414-3.247.334-.329.886-.479 1.415-.479.171 0 .325.009.463.015.407.017.61.04.879.659.333.775 1.146 2.69 1.243 2.887.099.196.197.463.059.722-.13.266-.244.385-.448.612-.204.226-.398.4-.602.643-.186.212-.397.439-.162.83.235.384 1.048 1.663 2.244 2.69 1.545 1.326 2.797 1.75 3.244 1.93.334.133.732.101.976-.149.31-.322.692-.855 1.08-1.38.277-.377.627-.424.993-.29.374.124 2.35 1.067 2.757 1.262.406.197.674.29.773.455.097.165.097.94-.237 1.851z" fill="#3F3C3C"/></g><defs><clipPath id="bdclip0_100_1050"><path fill="#fff" transform="translate(.924 .063)" d="M0 0h27.669v26.681H0z"/></clipPath></defs></svg>